<?xml version="1.0" standalone="no"?>
<!DOCTYPE svg PUBLIC "-//W3C//DTD SVG 20010904//EN"
 "http://www.w3.org/TR/2001/REC-SVG-20010904/DTD/svg10.dtd">
<svg version="1.0" xmlns="http://www.w3.org/2000/svg"
 width="2000.000000pt" height="2000.000000pt" viewBox="0 0 2000.000000 2000.000000"
 preserveAspectRatio="xMidYMid meet">
<metadata>
Created by potrace 1.14, written by Peter Selinger 2001-2017
</metadata>
<g transform="translate(0.000000,2000.000000) scale(0.100000,-0.100000)"
fill="#000000" stroke="none">
<path d="M9505 18954 c-538 -33 -843 -67 -1237 -140 -1935 -355 -3687 -1322
-5025 -2773 -1351 -1464 -2181 -3333 -2358 -5311 -49 -557 -46 -1190 11 -1745
72 -715 235 -1439 474 -2110 1063 -2982 3629 -5209 6721 -5835 1193 -241 2425
-241 3620 0 1300 263 2543 822 3610 1622 1782 1338 3011 3276 3449 5438 349
1724 191 3523 -451 5138 -298 750 -694 1458 -1174 2097 -1523 2028 -3813 3325
-6320 3579 -304 31 -429 37 -840 40 -231 2 -447 2 -480 0z m1035 -819 c725
-61 1391 -199 2025 -419 l130 -45 -110 4 c-286 12 -1033 16 -1180 6 -208 -13
-242 -17 -415 -47 -80 -14 -161 -27 -180 -30 -76 -12 -471 -117 -575 -153
l-110 -39 -330 -6 c-447 -7 -775 -37 -1175 -107 -3138 -545 -5583 -3002 -6115
-6144 -75 -442 -100 -755 -100 -1245 0 -490 25 -803 100 -1245 363 -2145 1625
-4013 3480 -5152 544 -334 1132 -596 1765 -787 l175 -53 6 -94 c16 -256 109
-387 311 -437 l87 -22 1358 0 1358 1 90 22 c161 39 253 131 292 292 12 49 22
100 23 112 0 15 8 24 23 28 194 46 422 105 542 140 2756 812 4800 3115 5280
5950 75 442 100 755 100 1245 0 390 -8 534 -46 870 -133 1164 -557 2315 -1212
3295 -497 742 -1155 1424 -1855 1920 l-141 100 0 444 c-1 387 1 442 14 437 8
-3 77 -44 152 -92 1022 -644 1923 -1545 2567 -2567 669 -1061 1091 -2269 1225
-3502 38 -350 46 -496 46 -905 0 -492 -24 -815 -91 -1250 -329 -2141 -1486
-4068 -3219 -5360 -993 -740 -2113 -1238 -3322 -1480 -567 -112 -1005 -155
-1613 -155 -409 0 -555 8 -905 46 -1233 134 -2441 556 -3502 1225 -1022 644
-1923 1545 -2567 2567 -669 1061 -1091 2269 -1225 3502 -38 350 -46 496 -46
905 0 409 8 555 46 905 134 1233 556 2441 1225 3502 644 1022 1545 1923 2567
2567 859 541 1802 918 2794 1116 417 83 747 123 1268 154 144 9 812 -4 985
-19z m1965 -860 c59 -2 227 -10 415 -20 148 -8 396 -25 490 -35 47 -4 92 -8
100 -8 8 0 35 -3 60 -6 25 -3 70 -8 100 -11 30 -3 58 -9 63 -14 4 -4 6 -533 5
-1177 l-3 -1169 -825 -6 c-454 -4 -845 -10 -870 -13 -25 -4 -56 -9 -70 -11
-85 -12 -111 -17 -160 -31 -30 -9 -63 -18 -73 -20 -125 -24 -327 -142 -424
-248 -131 -144 -219 -360 -250 -611 -4 -33 -8 -500 -10 -1037 l-4 -978 1301 0
1302 0 -6 -27 c-8 -40 -45 -308 -51 -368 -2 -27 -7 -68 -10 -90 -3 -22 -7 -56
-10 -75 -2 -19 -13 -100 -25 -180 -11 -80 -22 -165 -24 -190 -10 -93 -18 -160
-41 -320 -12 -91 -23 -172 -23 -180 -2 -28 -12 -108 -41 -320 -12 -80 -23
-167 -26 -195 -8 -84 -15 -133 -40 -315 -14 -96 -27 -197 -30 -225 -8 -82 -15
-127 -21 -136 -3 -5 -481 -9 -1130 -9 l-1124 0 0 -3365 0 -3365 -1360 0 -1360
0 0 3365 0 3365 -1132 2 -1133 3 -3 1313 -2 1312 1135 0 1135 0 2 1078 c1 592
3 1097 4 1122 13 345 86 762 191 1085 254 783 751 1380 1448 1740 148 76 476
209 540 219 11 2 58 15 105 29 80 25 118 34 165 41 11 2 20 4 20 5 0 1 11 4
25 6 14 2 72 12 130 23 58 11 134 24 170 27 36 4 79 8 95 10 17 2 82 7 145 11
63 3 117 8 120 11 4 5 838 -5 1015 -12z"/>
</g>
</svg>
